<svg width="22" height="22" viewBox="0 0 22 22" fill="none" xmlns="http://www.w3.org/2000/svg">
<path d="M22 14.8887C22 11.682 19.8393 8.88026 16.7924 8.036C16.6009 3.57245 12.9103 0 8.40039 0C3.76833 0 0 3.76833 0 8.40039C0 9.91 0.401825 11.3798 1.16486 12.6702L0.0308838 16.7697L4.13054 15.6359C5.31671 16.3374 6.65479 16.7325 8.03583 16.7921C8.87993 19.8391 11.6818 22 14.8887 22C16.1687 22 17.4134 21.6591 18.5071 21.0114L21.9689 21.9689L21.0114 18.5071C21.6591 17.4134 22 16.1687 22 14.8887ZM4.33397 14.2421L1.87971 14.9211L2.55865 12.4668L2.4039 12.2248C1.67461 11.0838 1.28906 9.76129 1.28906 8.40039C1.28906 4.47916 4.47916 1.28906 8.40039 1.28906C12.3216 1.28906 15.5117 4.47916 15.5117 8.40039C15.5117 12.3216 12.3216 15.5117 8.40039 15.5117C7.03949 15.5117 5.71719 15.1262 4.576 14.3969L4.33397 14.2421ZM20.1203 20.1203L18.2991 19.6164L18.0559 19.7747C17.1131 20.3872 16.0178 20.7109 14.8887 20.7109C12.3683 20.7109 10.1535 19.0813 9.36887 16.7446C13.2283 16.2996 16.2996 13.2283 16.7447 9.3687C19.0813 10.1535 20.7109 12.3683 20.7109 14.8887C20.7109 16.0178 20.3872 17.1131 19.7747 18.0559L19.6164 18.2991L20.1203 20.1203Z" fill="white"/>
<path d="M7.75586 11.6445H9.04492V12.9336H7.75586V11.6445Z" fill="white"/>
<path d="M9.68945 6.44531C9.68945 6.81139 9.54041 7.14926 9.26984 7.39684L7.75586 8.78258V10.3555H9.04492V9.35023L10.1401 8.34785C10.6729 7.86026 10.9785 7.16689 10.9785 6.44531C10.9785 5.02365 9.82205 3.86719 8.40039 3.86719C6.97873 3.86719 5.82227 5.02365 5.82227 6.44531H7.11133C7.11133 5.73448 7.68956 5.15625 8.40039 5.15625C9.11122 5.15625 9.68945 5.73448 9.68945 6.44531Z" fill="white"/>
</svg>
