<svg width="22" height="22" viewBox="0 0 22 22" fill="none" xmlns="http://www.w3.org/2000/svg">
<g clip-path="url(#clip0)">
<path d="M17.4424 2.88241H15.452V1.99201C15.452 1.70394 15.1378 1.57301 14.8497 1.57301H13.3046C12.938 0.525466 12.0214 0.00169566 10.9739 0.00169566C9.93784 -0.0372525 8.99552 0.597999 8.64308 1.57301H7.12415C6.83608 1.57301 6.548 1.70394 6.548 1.99201V2.88241H4.55763C3.37816 2.89499 2.41323 3.82543 2.35779 5.00365V20.0096C2.35779 21.1619 3.40533 21.9999 4.55763 21.9999H17.4424C18.5947 21.9999 19.6422 21.1619 19.6422 20.0096V5.0037C19.5868 3.82543 18.6218 2.89499 17.4424 2.88241ZM7.59549 2.62055H9.03587C9.2873 2.58987 9.48926 2.39859 9.53347 2.14916C9.68857 1.47376 10.2811 0.988934 10.9739 0.970688C11.6602 0.99149 12.2438 1.47782 12.388 2.14916C12.435 2.40721 12.6503 2.60095 12.9118 2.62055H14.4046V4.71563H7.59549V2.62055ZM18.5947 20.0097C18.5947 20.5858 18.0185 20.9524 17.4424 20.9524H4.55763C3.98148 20.9524 3.40533 20.5858 3.40533 20.0097V5.0037C3.45876 4.40399 3.95562 3.94097 4.55763 3.93H6.54795V5.26561C6.57562 5.55905 6.82976 5.77856 7.1241 5.76322H14.8497C15.1494 5.77961 15.4115 5.56311 15.452 5.26561V3.92995H17.4423C18.0443 3.94097 18.5412 4.40394 18.5946 5.00365V20.0097H18.5947Z" fill="white"/>
<path d="M8.98346 11.708C8.78702 11.5009 8.4609 11.4892 8.25017 11.6818L6.57409 13.2793L5.86701 12.546C5.67057 12.3389 5.34444 12.3273 5.13371 12.5198C4.93085 12.7324 4.93085 13.0667 5.13371 13.2793L6.20742 14.3792C6.30035 14.4833 6.43459 14.5408 6.57404 14.5363C6.71219 14.5344 6.84397 14.4779 6.94067 14.3792L8.98336 12.4413C9.18587 12.2555 9.19941 11.9407 9.01359 11.7382C9.00407 11.7277 8.99399 11.7176 8.98346 11.708Z" fill="white"/>
<path d="M16.4996 12.834H10.4763C10.187 12.834 9.95251 13.0685 9.95251 13.3578C9.95251 13.647 10.187 13.8815 10.4763 13.8815H16.4996C16.7889 13.8815 17.0234 13.647 17.0234 13.3578C17.0234 13.0685 16.7889 12.834 16.4996 12.834Z" fill="white"/>
<path d="M8.98346 7.51778C8.78702 7.31071 8.4609 7.29903 8.25017 7.49162L6.57409 9.08909L5.86701 8.35579C5.67057 8.14872 5.34444 8.13704 5.13371 8.32963C4.93085 8.54216 4.93085 8.87655 5.13371 9.08909L6.20742 10.189C6.30035 10.2931 6.43459 10.3506 6.57404 10.3462C6.71219 10.3442 6.84397 10.2877 6.94067 10.189L8.98336 8.25108C9.18587 8.06531 9.19941 7.75052 9.01359 7.54806C9.00407 7.53748 8.99399 7.52741 8.98346 7.51778Z" fill="white"/>
<path d="M16.4996 8.6438H10.4763C10.187 8.6438 9.95251 8.87829 9.95251 9.16757C9.95251 9.45685 10.187 9.69134 10.4763 9.69134H16.4996C16.7889 9.69134 17.0234 9.45685 17.0234 9.16757C17.0234 8.87829 16.7889 8.6438 16.4996 8.6438Z" fill="white"/>
<path d="M8.98346 15.8981C8.78702 15.6911 8.4609 15.6794 8.25017 15.872L6.57409 17.4694L5.86701 16.7361C5.67057 16.5291 5.34444 16.5174 5.13371 16.71C4.93085 16.9225 4.93085 17.2569 5.13371 17.4694L6.20742 18.5694C6.30035 18.6734 6.43459 18.731 6.57404 18.7265C6.71219 18.7246 6.84397 18.6681 6.94067 18.5694L8.98336 16.6314C9.18587 16.4457 9.19941 16.1309 9.01359 15.9284C9.00407 15.9179 8.99399 15.9078 8.98346 15.8981Z" fill="white"/>
<path d="M16.4996 17.0242H10.4763C10.187 17.0242 9.95251 17.2587 9.95251 17.5479C9.95251 17.8372 10.187 18.0717 10.4763 18.0717H16.4996C16.7889 18.0717 17.0234 17.8372 17.0234 17.5479C17.0234 17.2587 16.7889 17.0242 16.4996 17.0242Z" fill="white"/>
</g>
<defs>
<clipPath id="clip0">
<rect width="22" height="22" fill="white"/>
</clipPath>
</defs>
</svg>
