<svg width="23" height="22" viewBox="0 0 23 22" fill="none" xmlns="http://www.w3.org/2000/svg">
<path d="M5.20833 9.91675H13.5417V12.0834H5.20833V15.3334L0 11.0001L5.20833 6.66675V9.91675ZM4.16667 17.5001H6.9875C8.1903 18.6033 9.67363 19.3221 11.2595 19.5703C12.8454 19.8184 14.4664 19.5854 15.9281 18.8992C17.3898 18.213 18.6301 17.1027 19.5001 15.7016C20.3701 14.3004 20.8328 12.668 20.8328 11.0001C20.8328 9.33221 20.3701 7.69976 19.5001 6.29862C18.6301 4.89748 17.3898 3.78719 15.9281 3.10096C14.4664 2.41473 12.8454 2.18172 11.2595 2.4299C9.67363 2.67807 8.1903 3.39689 6.9875 4.50009H4.16667C5.13611 3.15369 6.3941 2.06097 7.8407 1.30874C9.2873 0.556505 10.8827 0.165487 12.5 0.166751C18.2531 0.166751 22.9167 5.01684 22.9167 11.0001C22.9167 16.9833 18.2531 21.8334 12.5 21.8334C10.8827 21.8347 9.2873 21.4437 7.8407 20.6914C6.3941 19.9392 5.13611 18.8465 4.16667 17.5001Z" fill="white"/>
</svg>
