<svg width="27" height="27" viewBox="0 0 27 27" fill="none" xmlns="http://www.w3.org/2000/svg">
<path d="M26.6004 9.35254L17.6774 0.428149C17.424 0.172345 17.0788 0.0286028 16.7187 0.0290538H16.7146C16.3569 0.0292229 16.0143 0.173021 15.7636 0.428149L6.29803 9.89233H1.35286C0.605688 9.89233 0 10.498 0 11.2452V23.8719C0 24.6191 0.605688 25.2248 1.35286 25.2248H8.0342L9.37985 26.5718C9.63323 26.8276 9.97849 26.9713 10.3386 26.9709H10.3422C10.7 26.9708 11.0429 26.827 11.2937 26.5718L12.6421 25.2248H22.9987C23.7458 25.2248 24.3515 24.6191 24.3515 23.8719V13.5153L26.5982 11.2686C26.8546 11.0176 26.9994 10.6741 27 10.3153C27.0013 9.95377 26.8574 9.60688 26.6004 9.35254ZM20.8638 4.89124L15.8628 9.89233H12.0333L18.9491 2.97649L20.8638 4.89124ZM16.4021 1.06399C16.5736 0.888291 16.8551 0.884909 17.0309 1.0565C17.0334 1.05898 17.036 1.06146 17.0384 1.06399L18.3114 2.33884L10.7575 9.89233H7.57333L16.4021 1.06399ZM10.6551 25.9359C10.5727 26.0221 10.4587 26.0709 10.3395 26.0712C10.2186 26.0709 10.103 26.0222 10.0184 25.9359L9.30995 25.2248H11.3668L10.6551 25.9359ZM23.4496 23.8719C23.4496 24.121 23.2477 24.3229 22.9987 24.3229H1.35286C1.10382 24.3229 0.901909 24.121 0.901909 23.8719V17.5586H23.4496V23.8719ZM23.4496 16.6566H0.901909V13.9509H23.4496V16.6566ZM23.4496 13.049H0.901909V11.2452C0.901909 10.9962 1.10382 10.7942 1.35286 10.7942H22.9987C23.2477 10.7942 23.4496 10.9962 23.4496 11.2452V13.049ZM25.9628 10.6287L24.3515 12.24V11.2452C24.3515 10.498 23.7458 9.89233 22.9987 9.89233H17.1363L21.4997 5.52889L25.961 9.99019C26.0476 10.0751 26.0964 10.1913 26.0963 10.3126C26.0962 10.4317 26.048 10.5457 25.9628 10.6287Z" fill="white"/>
</svg>
