<svg width="28" height="28" viewBox="0 0 28 28" fill="none" xmlns="http://www.w3.org/2000/svg">
<path d="M8.75002 21.6542V26.6875C8.75002 26.8035 8.79612 26.9148 8.87816 26.9969C8.96021 27.0789 9.07149 27.125 9.18752 27.125H24.0625C24.1786 27.125 24.2898 27.0789 24.3719 26.9969C24.4539 26.9148 24.5 26.8035 24.5 26.6875V16.1875C24.4997 15.8285 24.4114 15.475 24.2427 15.1581L21 9.07812V1.3125C21 1.19647 20.9539 1.08519 20.8719 1.00314C20.7898 0.921094 20.6786 0.875 20.5625 0.875H9.18752C9.07149 0.875 8.96021 0.921094 8.87816 1.00314C8.79612 1.08519 8.75002 1.19647 8.75002 1.3125V2.84769L3.80682 4.39496C3.75199 4.41212 3.70107 4.43992 3.65698 4.47676C3.61289 4.5136 3.57649 4.55876 3.54985 4.60967C3.52322 4.66058 3.50687 4.71624 3.50174 4.77347C3.49662 4.83069 3.50282 4.88837 3.51998 4.9432L8.75002 21.6542ZM8.19248 6.68998L7.93102 5.85457L8.75002 5.5982V12.865L7.07079 7.49957L7.9057 7.23816C8.01642 7.20349 8.10883 7.12626 8.16261 7.02346C8.21639 6.92066 8.22714 6.8007 8.19248 6.68998ZM23.625 16.1875V26.25H21C19.9704 26.2488 18.9822 25.8449 18.2465 25.1245C17.5109 24.4042 17.0862 23.4247 17.0634 22.3954C17.0853 22.2815 17.0612 22.1636 16.9963 22.0676L14.1586 17.8673C14.0604 17.7245 13.9914 17.5637 13.9557 17.3942C13.9199 17.2246 13.9181 17.0496 13.9503 16.8794C13.9825 16.7091 14.0481 16.5469 14.1433 16.4021C14.2386 16.2573 14.3615 16.1328 14.5051 16.0358C14.6487 15.9388 14.8101 15.8712 14.9799 15.8369C15.1498 15.8025 15.3248 15.8022 15.4948 15.8358C15.6647 15.8695 15.8264 15.9364 15.9704 16.0329C16.1143 16.1293 16.2378 16.2533 16.3336 16.3977C16.3362 16.4015 16.3391 16.4053 16.3415 16.409L18.8957 19.9438C18.9362 19.9998 18.9895 20.0455 19.0511 20.077C19.1127 20.1085 19.1808 20.125 19.25 20.125H20.5625C20.6786 20.125 20.7898 20.0789 20.8719 19.9969C20.9539 19.9148 21 19.8035 21 19.6875V10.9375L23.4706 15.5699C23.5718 15.76 23.6248 15.9721 23.625 16.1875ZM12.25 23.1875H11.375V4.8125H12.25C12.3661 4.8125 12.4773 4.76641 12.5594 4.68436C12.6414 4.60231 12.6875 4.49103 12.6875 4.375V3.5H17.0625V4.375C17.0625 4.49103 17.1086 4.60231 17.1907 4.68436C17.2727 4.76641 17.384 4.8125 17.5 4.8125H18.375V17.7297L17.0543 15.9019C17.0027 15.8265 16.9465 15.7544 16.886 15.686C17.2237 15.283 17.4325 14.7879 17.4856 14.2649C17.5386 13.7418 17.4333 13.2149 17.1833 12.7524C16.9333 12.2899 16.5502 11.9131 16.0836 11.6709C15.617 11.4287 15.0884 11.3322 14.5663 11.394C14.0442 11.4557 13.5527 11.6728 13.1554 12.0172C12.7582 12.3616 12.4735 12.8173 12.3383 13.3253C12.2031 13.8334 12.2236 14.3703 12.3971 14.8666C12.5707 15.3629 12.8893 15.7956 13.3116 16.1086C13.1268 16.4595 13.0405 16.8538 13.062 17.2497C13.0834 17.6457 13.2117 18.0284 13.4333 18.3572L16.1891 22.4358C16.2068 23.1547 16.3864 23.8602 16.7147 24.5H12.6875V23.625C12.6875 23.509 12.6414 23.3977 12.5594 23.3156C12.4773 23.2336 12.3661 23.1875 12.25 23.1875ZM14.0212 15.3199C13.9689 15.3553 13.9188 15.3929 13.8702 15.4321C13.58 15.2285 13.3585 14.9416 13.2349 14.6094C13.1113 14.2771 13.0916 13.9151 13.1783 13.5714C13.265 13.2277 13.454 12.9184 13.7204 12.6845C13.9868 12.4505 14.3179 12.303 14.67 12.2615C15.022 12.2199 15.3784 12.2862 15.6919 12.4517C16.0054 12.6171 16.2613 12.8739 16.4257 13.188C16.59 13.5021 16.6551 13.8587 16.6124 14.2106C16.5696 14.5625 16.4209 14.8931 16.1861 15.1587C15.8424 14.9949 15.4619 14.9236 15.0822 14.9519C14.7026 14.9802 14.3368 15.107 14.0212 15.3199ZM9.62502 1.75H20.125V19.25H19.4736L19.25 18.9405V4.375C19.25 4.25897 19.2039 4.14769 19.1219 4.06564C19.0398 3.98359 18.9286 3.9375 18.8125 3.9375H17.9375V3.0625C17.9375 2.94647 17.8914 2.83519 17.8094 2.75314C17.7273 2.67109 17.6161 2.625 17.5 2.625H12.25C12.134 2.625 12.0227 2.67109 11.9407 2.75314C11.8586 2.83519 11.8125 2.94647 11.8125 3.0625V3.9375H10.9375C10.8215 3.9375 10.7102 3.98359 10.6282 4.06564C10.5461 4.14769 10.5 4.25897 10.5 4.375V23.625C10.5 23.741 10.5461 23.8523 10.6282 23.9344C10.7102 24.0164 10.8215 24.0625 10.9375 24.0625H11.8125V24.9375C11.8125 25.0535 11.8586 25.1648 11.9407 25.2469C12.0227 25.3289 12.134 25.375 12.25 25.375H17.2916C17.5667 25.7075 17.885 26.0017 18.238 26.25H9.62502V1.75ZM8.75002 3.76452V4.68125L7.25213 5.15014C7.1414 5.1848 7.04898 5.26203 6.99519 5.36483C6.9414 5.46764 6.93064 5.5876 6.9653 5.69833L7.22676 6.53379L6.39184 6.79514C6.33701 6.81231 6.2861 6.84011 6.24202 6.87695C6.19793 6.91379 6.16154 6.95896 6.13491 7.00987C6.10828 7.06078 6.09194 7.11643 6.08681 7.17366C6.08169 7.23088 6.08789 7.28855 6.10506 7.34338L8.75002 15.7944V18.7247L4.48571 5.09934L8.75002 3.76452Z" fill="white"/>
</svg>
