<svg width="18" height="24" viewBox="0 0 18 24" fill="none" xmlns="http://www.w3.org/2000/svg">
<path d="M16.8074 13.6293C16.6285 10.6357 14.754 8.01132 11.9854 6.86351L15.0135 1.84541C15.0193 1.83964 15.0251 1.82811 15.0251 1.82234C15.3365 1.25131 15.1231 0.536089 14.5463 0.224621C14.2925 0.0861912 13.9984 0.0458157 13.7215 0.115031L12.7756 0.334212C10.8722 0.772575 8.89952 0.830254 6.97303 0.495714L4.17559 0.016976C3.53535 -0.0926146 2.92395 0.33998 2.81436 0.98022C2.76821 1.23978 2.81436 1.5051 2.94125 1.73582C2.94702 1.74159 2.94702 1.75312 2.95279 1.75889L6.01556 6.86927C3.24118 8.01132 1.37238 10.6415 1.19934 13.6351L0.628314 23.3944C0.61101 23.7116 0.853263 23.9827 1.16473 24C1.17627 24 1.1878 24 1.19934 24H16.7958C17.1131 24 17.3726 23.7462 17.3726 23.429C17.3726 23.4175 17.3726 23.4059 17.3726 23.3944L16.8074 13.6293ZM3.94487 1.18787C3.94487 1.1821 3.94487 1.17633 3.95064 1.16479C3.96218 1.15326 3.96794 1.15326 3.97371 1.15326L6.77116 1.632C8.84761 1.98961 10.976 1.93193 13.0294 1.45896L13.9695 1.23978C13.9811 1.23401 13.9926 1.23978 13.9984 1.25131C14.0041 1.26285 14.0041 1.26285 14.0041 1.26862L10.9241 6.36746C10.901 6.40784 10.8779 6.45398 10.8664 6.50013C10.728 6.46552 10.5895 6.43668 10.4511 6.40784C10.4511 6.40207 10.4569 6.3963 10.4569 6.38477L10.9356 4.50442C11.0164 4.19296 10.826 3.88149 10.5203 3.8065C10.2146 3.73152 9.89737 3.9161 9.82239 4.2218L9.34942 6.10791C9.33212 6.16559 9.33212 6.22327 9.33212 6.28095C9.22252 6.27518 9.11293 6.27518 9.00334 6.27518C8.92836 6.27518 8.84761 6.27518 8.77263 6.28095L7.82092 3.29316C7.72863 2.98746 7.40563 2.82019 7.09993 2.91248C6.79423 3.00476 6.62696 3.32777 6.71925 3.63347C6.71925 3.63923 6.71924 3.63923 6.72501 3.645L7.60174 6.40207C7.4287 6.43091 7.26143 6.47129 7.08839 6.51166C7.07686 6.43091 7.05378 6.35593 7.00764 6.28671L3.94487 1.18787ZM1.81651 22.8464L2.35292 13.6985C2.57211 10.0243 5.72716 7.22112 9.40133 7.4403C9.80509 7.46337 10.2088 7.52682 10.6011 7.62487C13.4331 8.32856 15.475 10.7857 15.6538 13.6985L16.1902 22.8464H1.81651Z" fill="white"/>
</svg>
