<svg width="25" height="25" viewBox="0 0 25 25" fill="none" xmlns="http://www.w3.org/2000/svg">
<path d="M23.3012 13.0607C22.1524 11.917 20.8243 12.9874 20.8243 12.9874V6.96683C20.8243 6.76465 20.6605 6.60062 20.4583 6.60062C20.2559 6.60062 20.0921 6.76465 20.0921 6.96683V13.5026C20.0921 13.5026 18.3459 14.8791 17.5953 15.2156V4.3753C17.5953 3.87137 18.0052 3.46148 18.5091 3.46148H19.1782C19.6822 3.46148 20.0921 3.87137 20.0921 4.3753V5.46764C20.0921 5.67002 20.2559 5.83386 20.4583 5.83386C20.6605 5.83386 20.8243 5.67002 20.8243 5.46764V4.3753C20.8243 3.46759 20.086 2.72925 19.1782 2.72925H18.5091C17.6014 2.72925 16.8629 3.46759 16.8629 4.3753V15.5059C16.6445 15.5671 16.4204 15.6087 16.1927 15.6306V7.91021C16.1927 6.99792 15.4505 6.25577 14.5384 6.25577H13.8855C12.9734 6.25577 12.2313 6.99792 12.2313 7.91021V11.6414L11.5608 11.9973V10.7556C11.5608 9.9343 10.8927 9.26615 10.0716 9.26615H9.08888C8.26758 9.26615 7.59962 9.9343 7.59962 10.7556V14.1L6.40389 14.7346L3.04618 15.6941C2.46195 15.861 1.97405 16.2437 1.67269 16.7712C1.37113 17.299 1.28931 17.9135 1.44228 18.5016L1.81784 19.9466C1.86857 20.1423 2.06847 20.2596 2.26435 20.2089C2.46005 20.1579 2.57754 19.958 2.52661 19.7622L2.15105 18.3173C1.93323 17.4792 2.41484 16.6362 3.2476 16.3983L6.31749 15.521L8.62482 21.6791C8.77932 22.0914 8.75491 23.2679 7.53439 23.7014L5.21446 24.2284C4.40594 24.4119 3.60923 23.9273 3.40057 23.1246L2.92964 21.3125C2.87871 21.1168 2.67882 20.9993 2.48313 21.05C2.28724 21.1009 2.16994 21.3008 2.22067 21.4967L2.69179 23.3091C2.95653 24.3272 3.861 25 4.8679 25C5.60776 25 7.6967 24.4155 7.6967 24.4155C8.33243 24.2713 8.8745 23.8594 9.18368 23.2856C9.43889 22.8122 9.51461 22.2675 9.40513 21.7485L17.4313 19.7835C18.0951 19.6208 18.7253 19.3055 19.2532 18.8716L23.1591 15.6623C24.3499 14.6062 23.6514 13.4091 23.3012 13.0607ZM13.8855 6.98819H14.5384C15.0467 6.98819 15.4602 7.4019 15.4602 7.91021V15.6489L13.1495 15.648C12.9372 15.6461 13.084 15.5059 13.0957 15.4964L13.7612 14.9573C14.382 14.4544 14.7875 13.7551 14.9662 12.8787C15.0797 12.3227 14.8676 11.7661 14.4131 11.4262C13.9885 11.1089 13.4424 11.0478 12.9637 11.2576V7.91021C12.9637 7.4019 13.3772 6.98819 13.8855 6.98819ZM8.33204 10.7556C8.33204 10.3383 8.67155 9.99858 9.08888 9.99858H10.0716C10.4889 9.99858 10.8286 10.3383 10.8286 10.7556V12.386L8.33185 13.7113V10.7556H8.33204ZM22.6943 15.0966L18.7882 18.3059C18.3445 18.6706 17.8151 18.9355 17.2572 19.0721L9.17185 21.0517L6.99747 15.249L13.2059 11.9534C13.4583 11.8193 13.7457 11.8417 13.9744 12.0127C14.2031 12.1838 14.3057 12.4528 14.2487 12.7324C14.1047 13.4379 13.7856 13.9951 13.3001 14.3882L12.6347 14.9274C12.3619 15.1483 12.2614 15.5047 12.3785 15.8357C12.4956 16.1664 12.7981 16.3804 13.1491 16.3804L15.8173 16.3816H15.8192C16.7691 16.3816 17.6819 16.0928 18.459 15.5463L21.4409 13.4494C21.8585 13.1556 22.4206 13.2075 22.7772 13.5726C22.9827 13.7824 23.3847 14.4059 22.6943 15.0966Z" fill="white"/>
<path d="M7.22231 21.9136C7.22231 21.1181 6.57514 20.4707 5.77958 20.4707C4.98402 20.4707 4.33685 21.1181 4.33685 21.9136C4.33685 22.709 4.98402 23.3564 5.77958 23.3564C6.57514 23.3564 7.22231 22.709 7.22231 21.9136ZM5.06928 21.9136C5.06928 21.5219 5.38781 21.2031 5.77958 21.2031C6.17116 21.2031 6.48988 21.5219 6.48988 21.9136C6.48988 22.3052 6.17135 22.6239 5.77958 22.6239C5.38781 22.6239 5.06928 22.3052 5.06928 21.9136Z" fill="white"/>
<path d="M3.14612 11.4981L8.46956 6.13369L9.667 6.75301C10.096 6.97483 10.618 6.89892 10.9659 6.56399L13.8636 3.77466C13.8636 3.77466 13.7838 5.20728 14.9902 5.20728C15.6113 5.20728 16.1167 4.70183 16.1167 4.08061V1.12649C16.1167 1.12305 16.1165 1.11943 16.1165 1.11581C16.1125 0.345041 15.5489 0 14.9902 0H12.0619C11.4407 0 10.9354 0.50545 10.9354 1.12649C10.9354 2.36474 12.1956 2.25297 12.1956 2.25297L9.98495 4.38082L8.77016 3.75254C8.33089 3.52518 7.8016 3.60853 7.45293 3.95949L1.54699 9.91102C1.10944 10.352 1.11211 11.0667 1.55309 11.5042C1.76557 11.715 2.49113 12.1531 3.14612 11.4981ZM2.06674 10.427L7.97269 4.47543C8.04898 4.39875 8.17144 4.26447 8.4337 4.40314L9.88158 5.15197C10.021 5.22407 10.1908 5.19946 10.3039 5.09055L13.3579 2.15074C13.4655 2.04717 13.4995 1.88848 13.4436 1.75C13.3877 1.61134 13.2534 1.52074 13.1039 1.52074H12.0619C11.8446 1.52074 11.6678 1.34393 11.6678 1.12649C11.6678 0.909238 11.8446 0.732426 12.0619 0.732426H14.9902C15.098 0.732426 15.3841 0.732426 15.3841 1.1242C15.3841 1.12744 15.3843 1.13068 15.3843 1.13412V4.08061C15.3843 4.29785 15.2075 4.47467 14.9902 4.47467C14.7728 4.47467 14.596 4.29785 14.596 4.08061V2.91387C14.596 2.76701 14.5083 2.63425 14.3732 2.57684C14.2382 2.51924 14.0818 2.54823 13.9759 2.65009L10.458 6.03641C10.3363 6.15352 10.1536 6.18023 10.0036 6.1026L8.5674 5.35968C8.42531 5.28625 8.25193 5.31352 8.1392 5.42701L2.62636 10.9822C2.38603 11.2225 2.14323 11.0581 2.06884 10.9843C1.91473 10.8311 1.91377 10.5811 2.06674 10.427Z" fill="white"/>
</svg>
