<svg width="17" height="21" viewBox="0 0 17 21" fill="none" xmlns="http://www.w3.org/2000/svg">
<path d="M14.7006 13.7197L13.44 13.3578L10.6973 11.6064V11.2051C11.4914 10.6195 12.0367 9.72444 12.1381 8.69844C12.5363 8.63576 12.8414 8.29743 12.8414 7.89072V6.78719C12.8414 6.78292 12.841 6.77874 12.8408 6.77448V5.37658C12.9994 5.26551 13.1001 5.08459 13.1001 4.88165V3.60237L14.9928 3.28716C15.3039 3.23536 15.5276 2.99382 15.5496 2.68608C15.5715 2.37834 15.3843 2.10879 15.0836 2.01531L8.70282 0.0310591C8.56966 -0.0103667 8.42904 -0.0103257 8.29597 0.0310181L1.91511 2.01531C1.61444 2.10879 1.42717 2.37834 1.44911 2.68604C1.46303 2.88156 1.5586 3.05014 1.7061 3.16055V4.83345H1.6905C1.33118 4.83345 1.03886 5.11925 1.03886 5.47055V6.30095L0.618205 8.7148C0.545502 9.1323 0.874406 9.51444 1.30861 9.51444H2.73284C3.16608 9.51444 3.49611 9.1332 3.42324 8.71476L3.00259 6.30095V5.47055C3.00259 5.11925 2.71027 4.83345 2.35095 4.83345H2.33538V3.342L3.89994 3.60253V4.88165C3.89994 5.08373 4.00017 5.26436 4.15807 5.3756L4.15866 6.78731V7.89072C4.15866 8.29747 4.46378 8.63576 4.86203 8.69844C4.96334 9.72387 5.50805 10.6185 6.30136 11.2042V11.6073L3.55929 13.3584L2.29968 13.7199C0.951807 14.1067 8.38579e-05 15.3165 8.38579e-05 16.7229V17.6396C8.38579e-05 17.8095 0.140917 17.9473 0.314724 17.9473C0.488531 17.9473 0.629364 17.8096 0.629364 17.6396V16.7229C0.629364 15.6144 1.38907 14.6223 2.47693 14.3102L3.65058 13.9734L8.33939 16.6973C8.43458 16.7526 8.56052 16.7556 8.66082 16.6973L13.3499 13.9732L14.5234 14.31C15.6111 14.6222 16.3708 15.6143 16.3708 16.7226V19.6937C16.3708 20.0748 16.0537 20.3848 15.664 20.3848H14.2771V19.0589C14.2771 18.889 14.1363 18.7513 13.9625 18.7513C13.7887 18.7513 13.6479 18.889 13.6479 19.0589V20.3848H3.35083V19.0589C3.35083 18.889 3.21 18.7513 3.03619 18.7513C2.86239 18.7513 2.72155 18.889 2.72155 19.0589V20.3848H1.33617C0.946395 20.3848 0.62928 20.0748 0.62928 19.6937V19.0776C0.62928 18.9077 0.488447 18.77 0.31464 18.77C0.140833 18.77 0 18.9077 0 19.0776V19.6937C0 20.414 0.599368 21 1.33613 21H15.6639C16.4006 21 17 20.414 17 19.6937V16.7226C17 15.3494 16.0807 14.1159 14.7006 13.7197ZM2.7328 8.89921H1.30861C1.2646 8.89921 1.23104 8.86077 1.23851 8.81808L1.61901 6.63457H2.42239L2.8029 8.81804C2.81032 8.86065 2.77701 8.89921 2.7328 8.89921ZM2.37331 5.47055V6.01938H1.66805V5.47055C1.66805 5.45845 1.67808 5.44865 1.69046 5.44865H2.35086C2.36328 5.44861 2.37331 5.45845 2.37331 5.47055ZM7.37474 15.3058L7.49997 15.494L4.28775 13.6279L6.32666 12.3259C6.41912 13.3866 6.77672 14.4072 7.37474 15.3058ZM7.37256 13.978C8.11314 14.0808 8.88648 14.0809 9.62748 13.978C9.4843 14.3224 9.30785 14.6548 9.09788 14.9704L8.50002 15.8688L7.90216 14.9704C7.69219 14.6548 7.51574 14.3224 7.37256 13.978ZM9.6253 15.3058C10.2233 14.4072 10.5809 13.3866 10.6733 12.3259L12.7123 13.6279L9.50007 15.494L9.6253 15.3058ZM11.4658 5.49114H12.2115V6.47953H11.8414C11.6343 6.47953 11.4657 6.31481 11.4657 6.11232V5.49114H11.4658ZM2.10582 2.60159L8.48676 0.617254C8.49494 0.614711 8.50375 0.61467 8.51206 0.617295L14.893 2.60159C14.9061 2.60569 14.9242 2.61127 14.9219 2.6433C14.9196 2.67529 14.9009 2.67837 14.8873 2.68067L12.7776 3.03197L11.9855 2.93619C11.8132 2.91532 11.656 3.03517 11.6347 3.20374C11.6134 3.37235 11.7359 3.52592 11.9083 3.54675L12.4709 3.6148V4.87595L4.52918 4.87566V3.61476L7.78495 3.22088C8.25917 3.16358 8.73995 3.16358 9.21384 3.22088L10.4461 3.36989C10.6185 3.39077 10.7756 3.27096 10.797 3.10239C10.8183 2.93377 10.6958 2.78021 10.5234 2.75934L9.29111 2.61033C8.766 2.54679 8.23321 2.54679 7.70772 2.61033L4.22176 3.03205L2.11144 2.68067C2.09777 2.67837 2.0791 2.67529 2.07679 2.6433C2.07453 2.61127 2.09261 2.60565 2.10582 2.60159ZM4.78773 6.47953L4.78731 5.49114H5.53427V6.11236C5.53427 6.31481 5.36579 6.47957 5.15863 6.47957H4.78773V6.47953ZM5.48023 8.54032C5.46404 8.28984 5.25109 8.09362 4.99548 8.09362C4.88099 8.09362 4.78786 8.00257 4.78786 7.89067V7.09477H5.15863C5.71269 7.09477 6.1635 6.65405 6.1635 6.11236V5.49114H10.8365V6.11236C10.8365 6.65405 11.2873 7.09477 11.8414 7.09477H12.2121V7.89067C12.2121 8.00257 12.119 8.09362 12.0045 8.09362C11.7489 8.09362 11.536 8.28984 11.5198 8.54036C11.4195 10.0936 10.0931 11.3103 8.49998 11.3103C6.90685 11.3103 5.58046 10.0936 5.48023 8.54032ZM8.50002 11.9255C9.05962 11.9255 9.59149 11.8004 10.0681 11.578V11.7729C10.0681 12.2989 9.99553 12.8177 9.85578 13.3181C9.00072 13.4775 8.03402 13.4839 7.14426 13.3181C7.00452 12.8177 6.93194 12.2989 6.93194 11.7729C6.93194 11.7664 6.93102 11.76 6.9306 11.7536C6.93051 11.7523 6.93064 11.7511 6.93055 11.7498V11.5774C7.40751 11.8002 7.93988 11.9255 8.50002 11.9255Z" fill="white"/>
</svg>
