<svg width="34" height="34" viewBox="0 0 34 34" fill="none" xmlns="http://www.w3.org/2000/svg">
<g clip-path="url(#clip0)">
<path d="M11.8742 21.786L11.8756 21.7859C11.8768 21.7858 11.8779 21.7855 11.8791 21.7854L28.0017 20.6281C28.3986 20.5996 28.7287 20.3112 28.8103 19.9218L31.4737 7.21687C31.5311 6.94297 31.4566 6.65828 31.2728 6.44756C31.0886 6.23685 30.8164 6.12464 30.5374 6.14467L8.80202 7.70488L7.961 4.88984C7.84125 4.48946 7.45967 4.22589 7.04284 4.25581L1.70731 4.6388C1.21613 4.67406 0.846629 5.10072 0.881887 5.59189C0.917144 6.08307 1.3438 6.45257 1.83497 6.41731L6.45724 6.08552C6.60618 6.58436 10.4819 19.5568 10.7049 20.3031C9.78936 20.7818 9.19399 21.7717 9.27257 22.8663C9.37816 24.3373 10.6609 25.4482 12.1318 25.3426L28.257 24.1851C28.7482 24.1498 29.1177 23.7232 29.0824 23.232C29.0471 22.7408 28.6205 22.3713 28.1293 22.4066L12.0042 23.5641C11.5139 23.5993 11.0863 23.2289 11.0511 22.7387C11.0159 22.2491 11.385 21.8222 11.8742 21.786ZM29.4861 8.00781L27.2031 18.8977L12.4621 19.9559L9.32476 9.45503L29.4861 8.00781Z" fill="#FFF200"/>
<path d="M11.4341 28.074C11.5396 29.545 12.8223 30.6559 14.2933 30.5503C15.7643 30.4447 16.8752 29.162 16.7696 27.691C16.664 26.22 15.3813 25.1092 13.9103 25.2148C12.4393 25.3203 11.3285 26.603 11.4341 28.074ZM14.038 26.9933C14.5282 26.9581 14.9559 27.3284 14.9911 27.8187C15.0263 28.3089 14.6559 28.7366 14.1656 28.7718C13.6754 28.807 13.2478 28.4366 13.2126 27.9463C13.1774 27.4561 13.5477 27.0285 14.038 26.9933Z" fill="#FFF200"/>
<path d="M24.0022 27.1719C24.1078 28.6429 25.3905 29.7538 26.8615 29.6482C28.3325 29.5426 29.4433 28.2599 29.3378 26.7889C29.2322 25.3179 27.9495 24.2071 26.4785 24.3127C25.0075 24.4182 23.8966 25.7009 24.0022 27.1719ZM26.6062 26.0912C27.0964 26.056 27.5241 26.4263 27.5592 26.9166C27.5944 27.4068 27.2241 27.8345 26.7338 27.8697C26.2436 27.9049 25.8159 27.5345 25.7807 27.0442C25.7455 26.554 26.1159 26.1264 26.6062 26.0912Z" fill="#FFF200"/>
</g>
<defs>
<clipPath id="clip0">
<rect width="30.4313" height="30.4313" fill="white" transform="translate(0.686157 2.86475) rotate(-4.10576)"/>
</clipPath>
</defs>
</svg>
