<?xml version="1.0" encoding="iso-8859-1"?>
<!-- Generator: Adobe Illustrator 16.0.0, SVG Export Plug-In . SVG Version: 6.00 Build 0)  -->
<!DOCTYPE svg PUBLIC "-//W3C//DTD SVG 1.1//EN" "http://www.w3.org/Graphics/SVG/1.1/DTD/svg11.dtd">
<svg version="1.1" fill="#FFF200"  id="Capa_1" xmlns="http://www.w3.org/2000/svg" xmlns:xlink="http://www.w3.org/1999/xlink" x="0px" y="0px"
	 width="36.82px" height="36.82px" viewBox="0 0 36.82 36.82" style="enable-background:new 0 0 36.82 36.82;" xml:space="preserve"
	>
<g>
	<g>
		<path d="M30.212,24.439c-1.003-0.641-2.334-0.346-2.975,0.656c-2.304,3.604-6.224,5.756-10.489,5.756
			c-6.861,0-12.439-5.58-12.439-12.439c0-6.859,5.578-12.439,12.439-12.439c3.639,0,7.018,1.576,9.363,4.272l-2.605,1.981
			l7.621,1.033l1.042-7.623l-2.614,1.988c-3.164-3.768-7.809-5.962-12.807-5.962C7.514,1.663,0,9.178,0,18.411
			c0,9.233,7.514,16.748,16.748,16.748c5.743,0,11.021-2.896,14.119-7.746C31.506,26.411,31.215,25.081,30.212,24.439z"/>

		<path d="M21.922,13.18c-0.216-0.205-0.559-0.197-0.763,0.019l-3.238,3.385c-0.339-0.219-0.739-0.346-1.174-0.346
			c-0.024,0-0.053,0.003-0.078,0.004l-4.411-4.22c-0.535-0.516-1.388-0.496-1.902,0.041c-0.514,0.537-0.494,1.391,0.041,1.902
			l4.216,4.032c-0.026,0.134-0.04,0.272-0.04,0.415c0,0.468,0.148,0.898,0.398,1.254l-1.322,1.383
			c-0.204,0.215-0.196,0.555,0.019,0.762c0.104,0.101,0.238,0.148,0.371,0.148c0.144,0,0.283-0.056,0.39-0.166l1.365-1.428
			c0.289,0.143,0.612,0.224,0.955,0.224c0.176,0,0.346-0.021,0.51-0.062l0.993,0.949c0.261,0.248,0.595,0.371,0.93,0.371
			c0.354,0,0.709-0.139,0.975-0.414c0.513-0.537,0.494-1.389-0.043-1.901l-1.188-1.138c-0.002-0.371-0.098-0.721-0.265-1.024
			l3.279-3.43C22.143,13.724,22.135,13.387,21.922,13.18z"/>
	</g>
</g>
<g>
</g>
<g>
</g>
<g>
</g>
<g>
</g>
<g>
</g>
<g>
</g>
<g>
</g>
<g>
</g>
<g>
</g>
<g>
</g>
<g>
</g>
<g>
</g>
<g>
</g>
<g>
</g>
<g>
</g>
</svg>
