<svg width="87" height="96" viewBox="0 0 87 96" fill="none" xmlns="http://www.w3.org/2000/svg">
<path d="M61.9643 46.1916C68.5379 46.1916 74.8422 48.8029 79.4904 53.4511C84.1387 58.0993 86.75 64.4037 86.75 70.9773C86.75 77.5508 84.1387 83.8552 79.4904 88.5034C74.8422 93.1516 68.5379 95.763 61.9643 95.763C55.3907 95.763 49.0864 93.1516 44.4381 88.5034C39.7899 83.8552 37.1786 77.5508 37.1786 70.9773C37.1786 64.4037 39.7899 58.0993 44.4381 53.4511C49.0864 48.8029 55.3907 46.1916 61.9643 46.1916ZM41.6851 3.1434e-08C45.4261 -0.000244913 49.0254 1.43106 51.7446 4.00029C54.4638 6.56952 56.0968 10.0819 56.3086 13.8169L56.3312 14.6461H79.9903C80.8466 14.6464 81.6709 14.9717 82.2966 15.5563C82.9224 16.1409 83.3029 16.9413 83.3612 17.7956C83.4196 18.65 83.1515 19.4946 82.6111 20.1589C82.0707 20.8232 81.2983 21.2576 80.4499 21.3743L79.9903 21.4058H76.4031L74.1498 44.3304C72.0769 43.384 69.8687 42.663 67.5704 42.2213L69.6118 21.4058H13.7538L19.4635 79.4134C19.59 80.7078 20.1604 81.9185 21.0779 82.8401C21.9954 83.7617 23.2036 84.3375 24.4973 84.4697L25.0696 84.4968H35.9753C37.2642 86.9798 38.9046 89.2556 40.8243 91.2565H25.0696C22.129 91.2564 19.2841 90.2106 17.0436 88.3061C14.803 86.4015 13.3127 83.7623 12.839 80.86L12.7354 80.0759L6.96253 21.4058H3.37987C2.56312 21.4058 1.77402 21.11 1.15848 20.5732C0.542946 20.0364 0.142623 19.2948 0.0315453 18.4856L0 18.026C3.44427e-05 17.2092 0.295818 16.4201 0.832651 15.8046C1.36948 15.1891 2.11105 14.7887 2.92021 14.6776L3.37987 14.6461H27.039C27.039 10.7617 28.582 7.03642 31.3287 4.28974C34.0754 1.54307 37.8007 3.1434e-08 41.6851 3.1434e-08ZM49.4182 57.8589L49.1028 58.1157L48.8459 58.4312C48.5862 58.8075 48.4471 59.2538 48.4471 59.711C48.4471 60.1682 48.5862 60.6146 48.8459 60.9909L49.1028 61.3063L58.7782 70.9773L49.1028 80.6482L48.8459 80.9637C48.5862 81.3399 48.4471 81.7863 48.4471 82.2435C48.4471 82.7007 48.5862 83.1471 48.8459 83.5234L49.1028 83.8388L49.4182 84.0957C49.7945 84.3554 50.2409 84.4944 50.6981 84.4944C51.1552 84.4944 51.6016 84.3554 51.9779 84.0957L52.2934 83.8388L61.9643 74.1634L71.6352 83.8388L71.9507 84.0957C72.327 84.3554 72.7733 84.4944 73.2305 84.4944C73.6877 84.4944 74.1341 84.3554 74.5104 84.0957L74.8258 83.8388L75.0827 83.5234C75.3424 83.1471 75.4814 82.7007 75.4814 82.2435C75.4814 81.7863 75.3424 81.3399 75.0827 80.9637L74.8258 80.6482L65.1504 70.9773L74.8258 61.3063L75.0827 60.9909C75.3424 60.6146 75.4814 60.1682 75.4814 59.711C75.4814 59.2538 75.3424 58.8075 75.0827 58.4312L74.8258 58.1157L74.5104 57.8589C74.1341 57.5992 73.6877 57.4601 73.2305 57.4601C72.7733 57.4601 72.327 57.5992 71.9507 57.8589L71.6352 58.1157L61.9643 67.7912L52.2934 58.1157L51.9779 57.8589C51.6571 57.6367 51.2842 57.5016 50.8955 57.4668C50.5068 57.432 50.1158 57.4988 49.7607 57.6606L49.4182 57.8589ZM41.6851 6.75974C39.7059 6.75981 37.799 7.50408 36.3431 8.8448C34.8872 10.1855 33.9886 12.0247 33.8257 13.9972L33.7987 14.6461H49.5714C49.5714 12.5545 48.7406 10.5486 47.2616 9.0696C45.7826 7.59062 43.7767 6.75974 41.6851 6.75974Z" fill="#FF1515"/>
</svg>
