<svg width="25" height="24" viewBox="0 0 25 24" fill="none" xmlns="http://www.w3.org/2000/svg">
<path d="M14.375 18H10.625C10.3125 18 10.0469 17.8906 9.82812 17.6719C9.60938 17.4531 9.5 17.1875 9.5 16.875V9H5.375C4.96875 9 4.6875 8.8125 4.53125 8.4375C4.375 8.03125 4.4375 7.6875 4.71875 7.40625L11.8438 0.28125C12.0312 0.09375 12.25 0 12.5 0C12.75 0 12.9688 0.09375 13.1562 0.28125L20.2812 7.40625C20.5625 7.6875 20.625 8.03125 20.4688 8.4375C20.3125 8.8125 20.0312 9 19.625 9H15.5V16.875C15.5 17.1875 15.3906 17.4531 15.1719 17.6719C14.9531 17.8906 14.6875 18 14.375 18ZM24.5 17.625V22.875C24.5 23.1875 24.3906 23.4531 24.1719 23.6719C23.9531 23.8906 23.6875 24 23.375 24H1.625C1.3125 24 1.04688 23.8906 0.828125 23.6719C0.609375 23.4531 0.5 23.1875 0.5 22.875V17.625C0.5 17.3125 0.609375 17.0469 0.828125 16.8281C1.04688 16.6094 1.3125 16.5 1.625 16.5H8V16.875C8 17.5938 8.25 18.2188 8.75 18.75C9.28125 19.25 9.90625 19.5 10.625 19.5H14.375C15.0938 19.5 15.7031 19.25 16.2031 18.75C16.7344 18.2188 17 17.5938 17 16.875V16.5H23.375C23.6875 16.5 23.9531 16.6094 24.1719 16.8281C24.3906 17.0469 24.5 17.3125 24.5 17.625ZM18.4062 22.4062C18.5938 22.2188 18.6875 22 18.6875 21.75C18.6875 21.5 18.5938 21.2812 18.4062 21.0938C18.2188 20.9062 18 20.8125 17.75 20.8125C17.5 20.8125 17.2812 20.9062 17.0938 21.0938C16.9062 21.2812 16.8125 21.5 16.8125 21.75C16.8125 22 16.9062 22.2188 17.0938 22.4062C17.2812 22.5938 17.5 22.6875 17.75 22.6875C18 22.6875 18.2188 22.5938 18.4062 22.4062ZM21.4062 22.4062C21.5938 22.2188 21.6875 22 21.6875 21.75C21.6875 21.5 21.5938 21.2812 21.4062 21.0938C21.2188 20.9062 21 20.8125 20.75 20.8125C20.5 20.8125 20.2812 20.9062 20.0938 21.0938C19.9062 21.2812 19.8125 21.5 19.8125 21.75C19.8125 22 19.9062 22.2188 20.0938 22.4062C20.2812 22.5938 20.5 22.6875 20.75 22.6875C21 22.6875 21.2188 22.5938 21.4062 22.4062Z" fill="#6D7C8E"/>
</svg>
