<svg width="100" height="100" viewBox="0 0 100 100" fill="none" xmlns="http://www.w3.org/2000/svg">
<path d="M95 50C95 74.8528 74.8528 95 50 95C25.1472 95 5 74.8528 5 50C5 25.1472 25.1472 5 50 5C74.8528 5 95 25.1472 95 50ZM9.5 50C9.5 72.3675 27.6325 90.5 50 90.5C72.3675 90.5 90.5 72.3675 90.5 50C90.5 27.6325 72.3675 9.5 50 9.5C27.6325 9.5 9.5 27.6325 9.5 50Z" fill="white"/>
<path fill-rule="evenodd" clip-rule="evenodd" d="M51.6315 19.502C40.5197 21.102 38.7433 28.2957 34.0693 36.6611C32.8473 38.8406 28.8536 44.3209 33.3512 45.8202C35.9339 46.6768 37.0677 44.8753 37.8362 43.4391C39.4992 40.2643 40.9858 37.4548 42.6614 34.4942C44.7654 30.765 46.5544 26.9225 52.0599 26.4942C53.9244 26.343 53.6473 26.6705 54.3402 25.2973C55.915 22.1225 61.5087 22.1099 62.6299 26.3808C62.9575 27.628 62.8819 28.7871 62.2898 29.8328C61.3827 31.458 62.1134 31.143 62.8693 33.0454C63.4362 34.4312 63.7134 36.132 63.6 37.6942C63.3355 41.4737 59.052 48.1761 56.9607 52.0186C56.3307 53.1776 54.8819 55.3572 55.3229 57.1209C55.6882 58.6328 57.5654 60.069 59.6567 59.2879C61.2567 58.6706 63.9402 52.9887 65.137 50.7587C68.3874 44.7241 72.7339 38.3619 68.9292 29.7446C66.6614 24.6044 60.652 18.217 51.6315 19.502Z" fill="white"/>
<path fill-rule="evenodd" clip-rule="evenodd" d="M29.4857 54.4372L29.4102 66.3554C29.4102 68.5853 30.2417 68.6861 31.7031 69.7065C33.2905 70.8026 37.3724 73.3349 39.2369 73.7506C40.8117 74.1034 42.2102 72.6924 43.2558 72.0246C44.4779 71.2435 56.3078 63.7349 57.1015 62.916C56.1566 62.2987 55.8668 62.7774 53.7503 60.9758C49.5172 57.3979 50.2605 53.8199 47.3377 51.1113C43.4952 47.5585 38.4558 51.3632 33.1645 49.4357C31.4763 48.8183 30.6574 47.8357 29.5865 47.4829L29.4857 54.4372Z" fill="white"/>
<path fill-rule="evenodd" clip-rule="evenodd" d="M44.6641 46.2861C45.9239 46.664 46.5286 46.5129 47.8137 47.2184C48.9727 47.8609 49.5523 48.7932 50.2074 49.1333C51.1019 47.9491 58.9507 33.6247 59.2782 32.264C56.179 32.4782 54.8058 31.4577 53.9617 29.3286C53.2436 29.8326 53.0294 30.5129 52.6011 31.357C50.9003 34.6955 45.2058 44.094 44.6641 46.2861Z" fill="white"/>
<path fill-rule="evenodd" clip-rule="evenodd" d="M29.3438 80.7434L34.6351 77.6064C35.4162 77.115 35.9831 76.8127 36.2855 76.2205L29.4067 72.3906L29.3438 80.7434Z" fill="white"/>
<path fill-rule="evenodd" clip-rule="evenodd" d="M57.4761 25.1717C54.2383 26.1166 55.4226 31.0929 58.862 30.3244C62.2131 29.5685 61.1801 24.1008 57.4761 25.1717Z" fill="white"/>
</svg>
